<svg width="1440" height="771" viewBox="0 0 1440 771" fill="none" xmlns="http://www.w3.org/2000/svg">
<g clip-path="url(#clip0_1981_8326)">
<path d="M-258.132 597.673L-135.871 580.366M-258.132 597.673L-132.935 488.472M-258.132 597.673L-240.608 497.665L-352.723 507.237L-388.222 616.091L-579.109 765.965M-258.132 597.673L-261.614 702.579M-135.871 580.366L-20.7537 564.071M-135.871 580.366L-123.017 674.908M-135.871 580.366L-261.614 702.579M-132.929 488.468L-135.865 580.366M-388.222 616.086L-240.608 497.66M-388.222 616.086L-258.126 597.669M-388.222 616.086L-526.921 635.72M-388.222 616.086L-413.023 732.806M-352.717 507.237L-469.551 517.211L-526.921 635.724M-526.921 635.72L-352.717 507.232M-526.921 635.72L-579.109 765.96M466.791 495.057L549.753 483.312M466.791 495.057L512.177 548.095M466.791 495.057L424.796 565.541M549.753 483.312L512.177 548.095M549.753 483.312L593.855 531.79M512.177 548.095L593.855 531.79M512.177 548.095L424.796 565.541M512.177 548.095L570.621 598.274M512.177 548.095L484.939 620.706M593.855 531.79L649.351 577.67L717.281 619.846L731.803 684.3M466.785 495.057L379.482 507.417L424.79 565.541M424.796 565.541L331.094 584.25M424.796 565.541L484.939 620.706M424.796 565.541L391.333 645.204M287.49 520.438L379.488 507.417L331.094 584.25M287.49 520.438L331.094 584.25M287.49 520.438L190.413 534.181M287.49 520.438L230.349 604.36M331.094 584.25L391.339 645.208M190.413 534.181L230.349 604.36M190.413 534.181L121.751 626.042M230.349 604.36L331.087 584.25M230.349 604.36L121.751 626.042M230.349 604.36L288.655 672.079M190.419 534.181L87.8317 548.7L121.757 626.042M121.751 626.042L175.519 701.695M121.751 626.042L50.2377 734.484M-20.7537 564.071L87.8256 548.7L4.33491 649.481M-20.7537 564.071L4.33491 649.481M-20.7537 564.071L-123.011 674.908M4.33491 649.481L121.751 626.037M4.33491 649.481L50.2377 734.484M-123.011 674.908L4.33491 649.486L-89.2477 770.996M-123.011 674.908L-261.614 702.579M-123.011 674.908L-89.2477 770.996M-123.011 674.908L-245.507 811.895M-261.614 702.579L-413.023 732.806M-261.614 702.579L-245.507 811.895M-261.614 702.579L-421.752 858.024M-413.023 732.806L-258.126 597.673M-413.023 732.806L-579.109 765.965M-413.023 732.806L-421.752 858.024M-413.023 732.806L-622.082 910.461M-579.109 765.965L-622.082 910.461M570.621 598.274L593.855 531.786M570.621 598.274L649.351 577.665M570.621 598.274L643.45 644.26M484.939 620.706L570.621 598.279L561.676 671.311M484.939 620.706L561.676 671.311M484.939 620.706L470.609 701.432M391.333 645.204L484.939 620.701M391.333 645.204L288.655 672.079M391.333 645.204L470.603 701.427M391.333 645.204L368.555 735.183M288.655 672.079L331.087 584.245M288.655 672.079L368.555 735.183M288.655 672.079L253.414 773.266M175.519 701.695L230.349 604.364M175.519 701.695L288.655 672.083M175.519 701.695L50.2377 734.484M175.519 701.695L253.414 773.266M175.519 701.695L122.49 816.57M50.2377 734.484L-89.2477 770.996M50.2377 734.484L122.484 816.57L-27.7058 866.246M50.2377 734.484L-27.7058 866.246M-89.2477 770.996L-245.507 811.895M-89.2477 770.996L-27.7058 866.246M-89.2477 770.996L-201.753 923.81M-245.507 811.895L-201.753 923.81M-421.752 858.024L-245.507 811.89M-421.752 858.024L-622.082 910.461M-421.752 858.024L-408.4 969.852M-421.752 858.024L-540.483 969.852M-622.082 910.461L-631.808 969.852M643.45 644.26L649.345 577.67M643.45 644.26L717.281 619.841L798.532 656.861M643.45 644.26L731.803 684.295L656.591 715.221M643.45 644.26L656.591 715.221M561.676 671.311L643.45 644.265M561.676 671.311L656.591 715.225M470.609 701.432L561.682 671.311M470.609 701.432L571.18 750.345M368.555 735.183L470.603 701.432L473.322 790.574M368.555 735.183L253.414 773.266M368.555 735.183L473.322 790.574M368.555 735.183L360.108 837.124M253.414 773.266L122.49 816.57M253.414 773.266L360.108 837.124M253.414 773.266L227.605 891.604M122.49 816.57L227.605 891.604M-27.7058 866.246L70.4215 956.234M-201.753 923.81L-27.6998 866.246M-201.753 923.81L-340.962 969.852M-201.753 923.81L-167.233 969.852M-386.661 969.852L-245.501 811.895M731.803 684.3L798.532 656.861M731.803 684.3L836.354 716.192M731.803 684.3L770.718 749.739M798.532 656.861L893.609 686.922L1002.37 707.878M656.591 715.221L571.174 750.34M656.591 715.221L770.718 749.734M656.591 715.221L694.725 788.581M571.174 750.34L561.676 671.306M571.174 750.34L473.322 790.574M571.174 750.34L694.719 788.581L767.002 860.461M571.174 750.34L605.712 834.077M473.322 790.574L360.108 837.124M473.322 790.574L605.712 834.077M473.322 790.574L500.02 888.099M360.108 837.124L227.605 891.604M360.108 837.124L500.02 888.099M360.108 837.124L372.476 953.293M227.605 891.604L70.4215 956.229M227.605 891.604L372.482 953.293L378.137 969.852M70.4215 956.229L122.49 816.565M70.4215 956.229L37.2881 969.852M70.4215 956.229L95.9964 969.852M70.4215 956.229L66.3932 969.852M-84.0727 969.852L-27.7058 866.241M-235.301 969.852L-201.759 923.81M836.354 716.192L770.718 749.739M836.354 716.192L904.038 771.629M836.354 716.187L798.538 656.861M836.354 716.187L893.616 686.922L956.94 737.333M836.354 716.187L956.94 737.328M770.718 749.739L694.725 788.581M770.718 749.739L904.038 771.629M770.718 749.739L841.655 812.066M694.725 788.581L605.712 834.077M694.725 788.581L841.655 812.066M605.712 834.077L500.02 888.099M605.712 834.077L767.002 860.461M605.712 834.077L676.061 919.413M500.02 888.099L676.061 919.413M500.02 888.099L549.075 969.852M372.476 953.293L500.02 888.104M372.476 953.293L340.075 969.852M372.476 953.293L452.262 969.852M220.941 969.852L227.599 891.604M956.94 737.333L1002.38 707.878M956.94 737.333L904.038 771.629M956.94 737.333L1092.09 744.87M1002.38 707.878L1092.09 744.87M1002.38 707.878L1123.66 717.352M904.038 771.629L841.655 812.066M904.038 771.629L1054.83 777.358M841.655 812.066L767.002 860.461M841.655 812.066L1010.17 816.293M767.002 860.461L676.061 919.413M767.002 860.461L955.674 863.809M767.002 860.461L887.69 923.084M676.061 919.413L598.255 969.852M676.061 919.413L887.69 923.084M1092.09 744.87L1123.65 717.352M1092.09 744.87L1054.83 777.358M1092.09 744.87L1238.53 735.996L1123.65 717.348M1054.83 777.358L956.934 737.333M1054.83 777.358L1010.17 816.293M1010.17 816.293L904.038 771.625M1010.17 816.293L955.68 863.804L841.655 812.062M887.69 923.084L955.68 863.809M887.69 923.084L834.049 969.852M754.815 969.852L676.067 919.413" stroke="#7A7A7A" stroke-width="0.65" stroke-miterlimit="10"/>
<path d="M1254.89 712.927L1238.53 735.997L1390.83 708.447M1254.89 712.927L1390.83 708.447M1254.89 712.927L1391.8 692.526M1123.65 717.352L1254.89 712.932M1219.01 763.533L1054.83 777.358L1195.3 796.978M1219.02 763.533L1092.09 744.87M1219.02 763.533L1238.54 735.997L1389.66 727.599M1219.02 763.533L1389.66 727.599M1219.02 763.533L1388.23 751.071M1195.3 796.973L1010.17 816.293L1165.9 838.451M1195.3 796.978L1219.01 763.537M1195.3 796.978L1388.23 751.071L1600.92 689.752M1195.3 796.978L1386.44 780.512M1165.9 838.451L1195.31 796.978M1165.9 838.451L1386.44 780.512M1165.9 838.451L1384.12 818.531M1128.47 891.244L955.68 863.805L1165.9 838.446L1128.47 891.244ZM1128.47 891.244L1384.12 818.531M1012.96 969.852L1079.21 960.729M1079.21 960.729L887.69 923.084L1128.47 891.248L1381.02 869.52M1079.21 960.729L1128.47 891.244M1079.21 960.729L1072.74 969.852M1079.21 960.729L1381.02 869.515M1390.83 708.447L1391.79 692.526M1390.83 708.447L1541.31 661.12M1390.83 708.447L1557.07 668.689M1391.8 692.526L1541.31 661.124M1391.8 692.526L1528.25 654.854L1541.31 661.124M1389.66 727.599L1390.83 708.447M1389.66 727.599L1388.23 751.071M1389.66 727.599L1557.07 668.689M1389.66 727.599L1576.47 678.007M1388.23 751.071L1386.44 780.512M1388.23 751.071L1576.47 678.007M1386.44 780.512L1384.12 818.531M1386.44 780.512L1600.92 689.752M1384.12 818.531L1632.73 705.02M1384.12 818.531L1675.76 725.685M1381.02 869.52L1384.12 818.535M1381.02 869.52L1376.63 941.47M1381.02 869.52L1675.76 725.69M1381.02 869.52L1737.24 755.209M1286.37 969.852L1376.63 941.465L1374.9 969.852M1376.63 941.47L1079.21 960.733M1376.63 941.47L1737.24 755.209M1376.63 941.47L1832.28 800.848M1541.31 661.12L1557.07 668.689M1541.31 661.12L1709.71 588.416M1541.31 661.124L1680.69 594.714M1557.07 668.689L1709.71 588.416M1576.47 678.007L1557.07 668.694L1745.39 580.68M1576.47 678.007L1600.92 689.752M1576.47 678.007L1745.39 580.68M1576.47 678.007L1790.31 570.933M1600.92 689.752L1632.73 705.02M1600.92 689.752L1790.31 570.933M1632.73 705.02L1386.44 780.507M1632.73 705.02L1675.76 725.685M1632.73 705.02L1848.61 558.281M1675.76 725.685L1737.24 755.209M1675.76 725.685L1927.3 541.214L2039.35 516.906M1675.76 725.685L2039.35 516.906M1737.24 755.209L1832.28 800.848M1737.24 755.209L2039.35 516.906M1737.24 755.209L2117.81 534.07M1519.52 969.852L1832.28 800.848M1832.28 800.848L1998.66 880.747M1832.28 800.848L2117.81 559.026M1838.18 969.852L1998.66 880.742M1998.66 880.747L1668.96 969.857M1998.66 880.747L2117.81 772.314M2117.81 937.96L1998.66 880.742L2117.81 818.42M1680.69 594.714L1528.25 654.854M1680.69 594.714L1656.62 599.935L1768.55 529.52M1680.69 594.714L1709.71 588.416M1680.69 594.714L1799.22 512.087M1528.25 654.85L1656.62 599.935M1709.71 588.416L1836.01 491.173M1709.71 588.416L1880.95 465.63M1745.39 580.68L1709.71 588.421M1745.39 580.68L1790.31 570.933M1745.39 580.68L1880.95 465.635M1790.31 570.933L1848.61 558.286M1790.31 570.933L1937.1 433.724M1790.31 570.933L2009.22 392.728M1848.61 558.286L1600.93 689.752M1848.61 558.286L1927.3 541.214M1848.61 558.286L2009.22 392.728M1848.61 558.286L2105.28 338.132M1927.3 541.214L1632.73 705.025M1927.3 541.214L2105.28 338.132M1927.3 541.214L2117.81 370.754M2039.35 516.906L2117.81 499.885M2039.35 516.906L2117.81 416.944M2117.81 638.328L1832.28 800.844M1799.22 512.087L1768.55 529.52M1799.22 512.087L1888.37 418.174M1768.55 529.52L1856.19 447.162M1836.01 491.173L1680.69 594.709M1836.01 491.173L1799.22 512.083L1926.63 383.711M1836.01 491.173L1880.95 465.63M1836.01 491.173L1926.63 383.711M1880.95 465.63L1937.1 433.72M1880.95 465.63L1972.87 342.071M1880.95 465.63L2029.85 290.745M1937.1 433.72L1745.39 580.676M1937.1 433.72L2009.22 392.728M1937.1 433.72L2029.85 290.745M1937.1 433.72L2101.84 225.907M2009.22 392.728L2105.28 338.132M2009.22 392.728L2101.84 225.907M2009.22 392.728L2117.81 246.354M2105.28 338.132L2117.81 331.011M2105.28 338.132L2117.81 310.859M2105.28 338.132L2117.81 320.209M2117.81 444.678L2039.35 516.901M1888.37 418.169L1856.19 447.157M1888.37 418.169L1926.63 383.711M1888.37 418.169L1942.45 319.303M1856.19 447.157L1942.45 319.303M1856.19 447.157L1913.59 357.881M1926.63 383.711L1972.87 342.071M1926.63 383.711L1976.35 273.978M1972.87 342.071L1836.01 491.178M1972.87 342.071L2029.85 290.745M1972.87 342.071L2016.74 219.979M2029.85 290.745L2065.7 154.53M2029.85 290.745L2117.81 92.6099M2101.84 225.907L2029.86 290.745M2101.84 225.907L2117.81 211.531M2101.84 225.907L2117.81 126.287M2101.84 225.907L2117.81 185.691M1942.45 319.303L1913.59 357.881M1942.45 319.303L1959.55 222.161M1913.59 357.881L1959.55 222.161M1976.35 273.983L1888.38 418.174M1976.35 273.983L1942.45 319.307M1976.35 273.983L2016.75 219.979M1976.35 273.983L1984.83 169.655L2014.48 108.063M1976.35 273.983L2014.48 108.063M2016.75 219.979L1926.64 383.715M2016.75 219.979L2014.48 108.063M2065.7 154.53L1972.87 342.071M2065.7 154.53L2016.75 219.974L2049.73 34.805M2065.7 154.53L2117.81 84.8739M2065.7 154.53L2049.73 34.805M1959.55 222.161L1937.74 267.458L1941.62 132.659M1959.55 222.161L1941.62 132.659M1913.59 357.881L1937.75 267.454M1984.82 169.655L1942.45 319.307M1984.82 169.655L1959.55 222.166M1984.82 169.655L1956.06 76.8466L1972.73 12.4154M1984.82 169.655L1972.73 12.4154M2014.48 108.063L1972.73 12.4154M2049.73 34.805L2014.48 108.059L1992.2 -62.8128M2049.73 34.805L1992.2 -62.8128M2049.73 34.805L2015.21 -151.784L1992.2 -62.8128M2117.81 41.8335L2092.37 -53.7728M2092.37 -53.7728L2065.7 154.535M2092.37 -53.7728L2049.73 34.8096M2092.37 -53.7728L2117.81 -106.616M2092.37 -53.7728L2015.21 -151.779M2092.37 -53.7728L2042.86 -258.649M1941.62 132.659L1928.99 181.465M1941.62 132.659L1893.56 55.1645M1941.62 132.659L1896.91 -0.53184L1956.07 76.8466M1937.75 267.458L1929 181.465L1890.61 104.512M1956.07 76.8466L1959.56 222.161M1956.07 76.8466L1941.63 132.659M1992.2 -62.8128L1972.73 12.4108M2117.81 -188.48L2042.86 -258.649M2042.86 -258.649L2015.21 -151.784M2042.86 -258.649L2068.78 -358.852M2117.81 -253.105L2085.91 -358.852M1893.56 55.1645L1928.99 181.47M1893.56 55.1645L1890.6 104.512" stroke="#7A7A7A" stroke-width="0.65" stroke-miterlimit="10"/>
<path d="M1893.56 55.1645L1896.91 -0.53184L1900.72 -63.881M1972.73 12.4154L1900.72 -63.881M1900.72 -63.881L1956.06 76.8466M1992.2 -62.8128L1905.09 -136.584M1905.09 -136.584L1972.73 12.4108M1905.09 -136.584L1900.72 -63.8856M1905.09 -136.584L1910.16 -220.867M2015.21 -151.784L1910.16 -220.871M1910.16 -220.867L1992.2 -62.8082M1910.16 -220.867L1916.1 -319.742L2015.21 -151.779M1916.1 -319.742L2042.86 -258.649L1975.75 -358.852M1918.45 -358.852L1916.1 -319.747M186.061 -358.852L162.047 -333.702L76.2211 -240.005M76.227 -240.001L-3.16928 -149.523L-77.6968 -60.6719M-77.7028 -60.6719L-148.55 27.9706L-216.606 117.76L-282.518 210.06M-282.518 210.055L-346.666 306.305L-409.132 408.089M-409.126 408.093L-469.551 517.211M617.209 86.6911L597.373 69.6609L561.64 123.42M617.209 86.6911L561.64 123.42M617.209 86.6911L578.156 140.052M561.64 123.42L578.156 140.052M561.64 123.42L543.342 104.993M561.64 123.42L531.791 178.339M561.64 123.42L517.172 159.788M578.156 140.052L593.135 155.136M578.156 140.052L544.992 195.083M575.4 50.7995L597.367 69.6609L543.342 104.993M575.4 50.7995L543.342 104.993M575.4 50.7995L522.954 84.4577M543.342 104.993L522.954 84.4577M543.342 104.993L517.166 159.788L500.873 139.114M543.342 104.993L500.873 139.114M575.4 50.8041L550.936 29.8018L522.954 84.4577M522.954 84.4577L500.873 139.114M522.954 84.4577L482.604 115.933M550.936 29.7971L523.53 6.27011L500.092 61.4347M500.098 61.4347L550.942 29.8018M500.098 61.4347L522.96 84.4577M500.098 61.4347L482.604 115.933M641.295 203.642L651.062 213.482M641.295 203.642L595.452 259.098M641.295 203.642L587.005 248.384M595.452 259.098L651.068 213.482L603.256 269.003M595.452 259.098L603.256 269.003M595.452 259.098L587.005 248.384M595.452 259.098L555.835 318.489M595.452 259.098L549.477 307.34M603.256 269.003L555.829 318.489M603.256 269.003L561.706 328.796M641.295 203.647L630.729 193.002L587.005 248.389M587.005 248.384L577.844 236.759M587.005 248.384L549.477 307.34M587.005 248.384L542.585 295.253M619.262 181.451L630.729 192.997L577.844 236.759M619.262 181.451L577.844 236.759M619.262 181.451L567.866 224.103M577.844 236.759L567.866 224.103M577.844 236.759L542.585 295.249L508.797 343.107M577.844 236.759L535.081 282.093M606.78 168.879L619.268 181.451M606.78 168.879L567.866 224.103M606.78 168.879L593.135 155.136M606.78 168.879L556.963 210.268M567.866 224.103L556.963 210.268M567.866 224.103L535.081 282.093M567.866 224.103L526.886 267.722M593.135 155.136L556.963 210.268M593.135 155.136L544.992 195.083M556.963 210.268L544.992 195.083M556.963 210.268L526.892 267.722L517.899 251.954M556.963 210.268L517.899 251.954M544.992 195.083L531.797 178.339M544.992 195.083L517.899 251.954M531.797 178.339L578.156 140.048M531.797 178.339L517.172 159.788M531.797 178.339L507.993 234.577M517.172 159.788L497.024 215.341M500.873 139.114L484.807 193.913M482.604 115.933L500.879 139.114M482.604 115.933L471.125 169.914M555.829 318.489L561.706 328.796M555.829 318.489L522.81 382.166M561.706 328.796L522.81 382.166M561.706 328.796L526.79 393.255M549.477 307.34L555.829 318.484M549.477 307.34L542.585 295.253M549.477 307.34L518.517 370.19M549.477 307.34L513.858 357.215M542.585 295.253L513.858 357.215M535.081 282.093L542.579 295.249M535.081 282.093L508.797 343.107M535.081 282.093L503.274 327.714M526.886 267.722L535.081 282.098M526.886 267.722L503.274 327.718M517.899 251.954L507.993 234.581M517.899 251.954L497.223 310.85M517.899 251.954L490.565 292.298M507.993 234.581L544.992 195.088M507.993 234.581L497.024 215.341M507.993 234.581L490.565 292.298M497.024 215.341L531.797 178.344M497.024 215.341L483.204 271.782L471.924 304.362M484.807 193.918L517.172 159.792M484.807 193.918L497.018 215.341L475.016 248.976M484.807 193.918L471.125 169.919M484.807 193.918L475.016 248.976M484.807 193.918L465.866 223.479M471.125 169.919L500.873 139.118M471.125 169.919L465.866 223.479M522.81 382.166L526.79 393.25L513.252 427.324M522.81 382.166L509.085 418.567M518.517 370.19L555.835 318.484M518.517 370.19L522.815 382.166L506.774 413.698M518.517 370.19L513.858 357.215M518.517 370.19L504.679 409.282M513.858 357.215L508.797 343.107M513.858 357.215L500.002 399.455M508.797 343.107L503.274 327.714M508.797 343.107L495.079 389.093M503.274 327.714L497.223 310.85M503.274 327.714L490.192 377.26M497.223 310.85L526.892 267.717M497.223 310.85L485.654 362.459M497.223 310.85L481.367 348.48M490.565 292.298L497.223 310.855M490.565 292.298L480.875 346.89M490.565 292.298L476.186 329.221M483.198 271.782L507.987 234.581M483.198 271.782L490.559 292.298M483.198 271.782L475.016 248.976M483.198 271.782L476.18 329.221M475.016 248.976L465.866 223.479M475.016 248.976L471.918 304.362L467.169 276.66M475.016 248.976L467.169 276.66M465.866 223.479L467.169 276.66M511.271 423.154L526.796 393.255M501.947 403.548L518.517 370.195M496.76 392.635L513.858 357.22M491.255 380.733L508.797 343.112M486.512 365.27L503.268 327.714M476.186 329.221L477.111 334.594M476.186 329.221L471.924 304.362M471.924 304.362L475.52 329.42M476.18 331.57V329.217M515.984 433.067L549.753 483.312M1768.91 530.759L1768.55 529.52L1770.08 530.038M1856.56 447.73L1856.19 447.157L1857 447.319M804.272 -358.852L804.356 -352.041M812.13 -358.852L804.35 -352.041M804.35 -352.041L724.959 -344.809M804.35 -352.041L737.873 -287.536M740.226 -358.852L724.959 -344.809M724.959 -344.809L737.879 -287.536M724.959 -344.809L721.796 -358.852M724.959 -344.809L657.258 -275.911M724.959 -344.809L634.967 -324.491M737.873 -287.536L657.258 -275.911M737.873 -287.536L680.426 -225.417L657.258 -275.911M657.258 -275.911L634.967 -324.491M657.258 -275.911L598.928 -209.778M657.258 -275.911L568.232 -252.407M670.111 -358.852L634.967 -324.491M634.967 -324.491L619.202 -358.852M634.967 -324.491L568.232 -252.407M634.967 -324.491L538.791 -293.297M598.928 -209.778L680.432 -225.417L630.957 -165.3M598.928 -209.778L630.951 -165.304M598.928 -209.778L568.232 -252.407M601.612 -358.852L538.791 -293.302M538.791 -293.297L568.238 -252.402M538.791 -293.297L510.52 -332.56M536.353 -358.852L510.52 -332.56M510.52 -332.56L580.473 -358.852" stroke="#7A7A7A" stroke-width="0.65" stroke-miterlimit="10"/>
<path d="M491.585 -358.852L510.514 -332.56M548.84 -145.87L598.928 -209.778L510.742 -183.209M548.84 -145.87L510.742 -183.209M548.84 -145.87L461.429 -116.243M548.846 -145.87L630.956 -165.304L588.662 -106.847M548.846 -145.87L588.662 -106.847M548.846 -145.87L506.21 -83.718M588.662 -106.847L506.204 -83.718M588.662 -106.847L552.983 -49.7453M510.742 -183.209L568.232 -252.407L474.253 -218.971M510.742 -183.209L474.253 -218.971M510.742 -183.209L461.429 -116.243M510.742 -183.209L418.528 -147.405M538.791 -293.297L474.253 -218.971M474.253 -218.971L439.271 -253.258M474.253 -218.971L418.528 -147.405M474.253 -218.971L377.386 -177.29M439.271 -253.258L510.52 -332.56L405.705 -286.153M439.271 -253.258L538.791 -293.302M439.271 -253.258L377.386 -177.29M472.8 -358.852L405.699 -286.158M405.705 -286.153L439.271 -253.253M405.705 -286.153L337.895 -205.973L235.025 -152.57M412.231 -358.852L373.466 -317.749L342.488 -348.11M373.466 -317.744L459.436 -358.852M373.466 -317.744L405.699 -286.153L299.953 -233.532M373.466 -317.744L299.953 -233.532M373.466 -317.744L263.482 -260.023M352.796 -358.852L342.488 -348.11M342.488 -348.11L363.572 -358.852M342.488 -348.11L331.526 -358.852M342.488 -348.11L263.482 -260.027M506.204 -83.718L552.977 -49.7453M506.204 -83.718L470.471 -22.9352M506.204 -83.718L419.567 -50.9661M552.977 -49.7453L470.471 -22.9398M552.977 -49.7453L523.53 6.27474M461.429 -116.243L506.204 -83.7226M461.429 -116.243L418.528 -147.405M461.429 -116.243L419.567 -50.9661M461.429 -116.243L370.681 -77.8825M418.528 -147.405L377.386 -177.29M418.528 -147.405L370.681 -77.8825M418.528 -147.405L323.703 -103.749M377.386 -177.29L323.703 -103.749M337.889 -205.977L439.265 -253.258M337.889 -205.977L377.38 -177.294M337.889 -205.977L299.953 -233.532M337.889 -205.977L278.515 -128.627M299.953 -233.532L263.482 -260.023M299.953 -233.532L235.019 -152.574M299.953 -233.532L193.133 -175.634M263.482 -260.023L228.392 -285.51M263.482 -260.023L193.133 -175.634M263.482 -260.023L152.753 -197.867M295.739 -358.852L228.392 -285.515L194.604 -310.055M228.392 -285.51L342.488 -348.106M228.392 -285.51L152.76 -197.867L39.8096 -131.507M240.351 -358.852L194.604 -310.055M194.604 -310.055L280.28 -358.852M194.604 -310.055L162.047 -333.702L204.816 -358.852M194.604 -310.055L113.809 -219.308M194.604 -310.055L76.2268 -240.001L113.815 -219.308L-3.1695 -149.523L39.8096 -131.507M470.471 -22.9398L523.53 6.27011M470.471 -22.9398L441.324 36.8025L356.656 76.2362M419.567 -50.9661L470.477 -22.9398L384.711 13.0674M419.567 -50.9661L370.681 -77.8825M419.567 -50.9661L384.711 13.0721M419.567 -50.9661L330.127 -9.81226M370.681 -77.8825L323.703 -103.749M370.681 -77.8825L330.127 -9.81226M370.681 -77.8825L277.47 -31.8827M323.703 -103.749L278.515 -128.627M323.703 -103.749L277.47 -31.8827M323.703 -103.749L226.639 -53.1902M278.515 -128.627L377.38 -177.29M278.515 -128.627L235.025 -152.57M278.515 -128.627L226.639 -53.1902M278.515 -128.627L177.542 -73.7717M235.025 -152.57L193.133 -175.634M235.025 -152.57L177.542 -73.7671L130.09 -93.6597M193.133 -175.634L152.753 -197.867M193.133 -175.634L130.09 -93.6597M193.133 -175.634L84.2055 -112.896M152.753 -197.867L113.809 -219.308M152.753 -197.867L84.2055 -112.896M113.809 -219.308L228.386 -285.515M113.809 -219.308L39.8036 -131.507M441.33 36.8025L523.536 6.27474M441.33 36.8025L500.098 61.4347L418.643 95.7727M441.33 36.8025L418.643 95.7727M384.711 13.0674L441.33 36.7979M384.711 13.0674L330.127 -9.81226M384.711 13.0674L356.656 76.2362M384.711 13.0674L296.567 57.2962M330.127 -9.81226L277.47 -31.8827M330.127 -9.81226L296.567 57.2962M330.127 -9.81226L238.279 38.925M277.47 -31.8827L226.639 -53.1902M277.47 -31.8827L238.279 38.925M226.639 -53.1902L177.542 -73.7717M226.639 -53.1902L181.72 21.0994L82.4825 80.8926M226.639 -53.1902L126.806 3.78701M177.542 -73.7717L126.806 3.78701M177.542 -73.7717L73.4772 -13.0213M130.09 -93.6597L235.019 -152.57M130.09 -93.6597L84.2055 -112.896M130.09 -93.6597L73.4712 -13.0213L-35.5944 53.8467M130.09 -93.6597L21.655 -29.3534M84.2055 -112.896L39.8096 -131.507M84.2055 -112.896L21.655 -29.3534M39.8096 -131.507L-28.7144 -45.2323M39.8096 -131.507L-77.7029 -60.6719L-28.7204 -45.2323L-148.55 27.9706L-92.6877 40.7653M418.643 95.7727L482.604 115.933L402.463 154.188M418.643 95.7727L402.469 154.188L335.434 138.832M418.643 95.7727L335.434 138.832M356.656 76.2362L418.637 95.7727M356.656 76.2362L296.567 57.2962M356.656 76.2362L335.428 138.832M296.567 57.2962L238.279 38.925M296.567 57.2962L269.972 123.841M296.567 57.2962L206.029 109.192M238.279 38.925L206.023 109.192M238.279 38.925L143.544 94.8803M181.72 21.0947L277.47 -31.8873M181.72 21.0947L238.279 38.9203M181.72 21.0947L143.55 94.8756M126.806 3.78701L181.714 21.0947M126.806 3.78701L73.4772 -13.0213M126.806 3.78701L82.4825 80.888L22.7837 67.2147M126.806 3.78701L22.7837 67.2147M73.4772 -13.0213L21.655 -29.3534M73.4772 -13.0213L22.7837 67.2194M21.655 -29.3534L-28.7144 -45.2323M21.655 -29.3534L-35.5944 53.8467M21.655 -29.3534L-92.6877 40.7653M-28.7144 -45.2323L84.2115 -112.896M-28.7144 -45.2323L-92.6877 40.7653M402.463 154.188L471.125 169.914M402.463 154.188L393.02 212.196M335.434 138.832L321.26 201.076M269.972 123.841L356.662 76.2408M269.972 123.841L335.434 138.836L250.556 190.126M269.972 123.841L206.029 109.192M269.972 123.841L250.556 190.126M269.972 123.841L180.886 179.333M206.023 109.192L143.544 94.8803M206.023 109.192L112.23 168.698M206.029 109.192L180.892 179.333M143.544 94.8803L112.23 168.698M143.544 94.8803L44.5643 158.216M82.4825 80.8926L143.55 94.8803M82.4825 80.8926L44.5643 158.216M82.4825 80.8926L-22.1285 147.885L44.5704 158.216M22.7837 67.2147L-22.1285 147.881M22.7837 67.2147L-87.8789 137.699M-35.5944 53.8467L22.7777 67.2194M-35.5944 53.8467L-87.8789 137.703M-35.5944 53.8467L-152.699 127.66M-92.6877 40.7653L-35.5884 53.8467M-92.6877 40.7653L-152.693 127.66M-92.6877 40.7653L-216.606 117.76L-152.699 127.66M393.02 212.196L471.125 169.919M393.02 212.196L465.866 223.479M321.26 201.08L402.463 154.193M321.26 201.08L393.026 212.196M321.26 201.08L250.556 190.126M250.556 190.126L180.886 179.333M180.886 179.333L112.23 168.698M112.23 168.698L44.5643 158.216M-87.8789 137.699L-22.1345 147.885M-87.8789 137.699L-152.699 127.66" stroke="#7A7A7A" stroke-width="0.65" stroke-miterlimit="10"/>
<path d="M390.708 269.867L393.02 212.196L314.584 263.102M390.708 269.867L465.866 223.479M390.708 269.867L467.169 276.66M390.708 269.867L396.094 327.191M390.708 269.867L316.067 324.939M314.584 263.107L321.26 201.08L238.796 256.37M314.584 263.102L390.708 269.863M314.584 263.102L238.796 256.37M314.584 263.102L316.067 324.935M314.584 263.102L235.428 322.669M238.796 256.37L250.557 190.126L163.338 249.665M238.796 256.37L163.338 249.665M238.796 256.37L235.428 322.669M238.796 256.37L154.177 320.385M163.338 249.665L180.886 179.333L88.2161 242.992M163.338 249.665L88.2161 242.992M163.338 249.665L154.171 320.385M88.2161 242.992L112.23 168.698L13.4184 236.348M88.2161 242.992L13.4184 236.348M88.2161 242.992L72.3008 318.087M88.2161 242.992L-10.2054 315.765M13.4184 236.348L44.5646 158.216L-61.049 229.731M13.4184 236.348L-61.049 229.731M13.4184 236.348L-10.2054 315.765M-61.049 229.731L-93.3418 313.426M-61.049 229.731L-177.127 311.072M-87.8787 137.699L-135.192 223.146M-135.192 223.146L-22.1283 147.885L-61.049 229.735L-135.192 223.146ZM-135.192 223.146L-209.011 216.589M-135.192 223.146L-177.127 311.072M-135.192 223.146L-261.566 308.7M-152.698 127.66L-209.017 216.589M-209.011 216.589L-87.8727 137.703M-209.011 216.589L-261.566 308.7M-152.698 127.655L-282.518 210.056L-209.017 216.585L-346.666 306.305L-261.566 308.695M396.094 327.191L316.067 324.939M396.094 327.191L326.585 386.485M396.094 327.187L467.175 276.655M396.094 327.187L475.52 329.42L409.92 384.034M396.094 327.187L409.92 384.034M316.067 324.935L235.428 322.669M316.067 324.935L241.479 388.982M316.067 324.939L326.585 386.485M235.428 322.669L154.177 320.385M235.428 322.669L241.479 388.982M235.428 322.669L154.537 391.535M154.177 320.385L154.537 391.535M72.3008 318.087L163.338 249.67M72.3008 318.087L154.177 320.389L65.7029 394.147M72.3008 318.087L-10.2054 315.765M72.3008 318.087L65.7029 394.147M-10.2054 315.765L-25.0881 396.811M-93.3418 313.426L13.4244 236.348M-93.3418 313.426L-10.1994 315.765L-117.89 399.539M-93.3418 313.426L-177.127 311.072M-93.3418 313.426L-117.89 399.534L-212.787 402.322M-177.127 311.072L-261.566 308.7M-177.127 311.072L-212.782 402.327M-177.127 311.072L-309.84 405.175M-261.566 308.7L-309.84 405.175M-261.566 308.7L-409.126 408.093L-309.84 405.175M409.92 384.034L491.537 381.639M409.92 384.034L433.117 440.142M409.92 384.034L347.273 447.471M326.585 386.485L409.92 384.039M326.585 386.485L347.273 447.476M241.479 388.982L326.585 386.481L258.277 455.069M241.479 388.982L154.537 391.535M241.479 388.982L258.277 455.069M154.537 391.535L165.955 462.948L70.1215 471.133M154.537 391.535L70.1215 471.133M65.7029 394.147L154.537 391.539M65.7029 394.147L70.1215 471.137L-29.4346 479.636M65.7029 394.147L-29.4346 479.636M-25.0821 396.811L72.3008 318.082M-25.0821 396.811L65.7029 394.143M-25.0821 396.811L-117.89 399.539M-25.0821 396.811L-29.4286 479.632M-25.0821 396.811L-132.929 488.468L-29.4346 479.632L-135.871 580.366M-117.89 399.539L-132.929 488.473L-240.608 497.665L-117.89 399.539ZM-212.787 402.322L-93.3478 313.426M-212.787 402.322L-309.84 405.175M-212.787 402.322L-240.608 497.661M-309.84 405.175L-352.723 507.237L-212.787 402.327M433.117 440.142L491.531 381.639M433.117 440.142L515.978 433.068M433.117 440.142L347.273 447.471M433.117 440.142L466.785 495.057M433.117 440.142L379.482 507.417L347.273 447.471M347.273 447.471L258.277 455.069M347.273 447.471L287.49 520.439L258.277 455.069M258.277 455.069L165.955 462.953M165.955 462.953L241.473 388.982M165.955 462.953L190.414 534.181L258.277 455.073M70.1215 471.133L87.8258 548.701M70.1215 471.133L-20.7535 564.071M-29.4346 479.636L-20.7535 564.075M-469.551 517.211L-309.834 405.175M466.791 495.057L515.984 433.068M87.8318 548.701L165.961 462.953M1348.37 -82.9227L1249.04 -73.8827L1154.07 -56.8524L1064.37 -33.0017L980.444 -3.29235M980.45 -3.29235L902.519 31.5219L830.639 70.8909L764.793 114.449M764.793 114.454L704.938 161.998L651.068 213.482M472.056 306.129L471.828 306.069M1821.93 -7.78228L1890.61 104.512M1821.93 -7.78228L1827.82 39.7388L1733.63 -55.3172M1821.93 -7.78228L1733.63 -55.3172M1821.93 -7.78228L1719.1 -104.013M1815.36 -60.7921L1896.91 -0.531817L1807.98 -120.303M1815.36 -60.7921L1893.56 55.1646L1821.93 -7.77765L1815.36 -60.7921ZM1815.36 -60.7921L1807.98 -120.303M1815.36 -60.7921L1719.1 -104.013M1815.36 -60.7921L1702.96 -158.082M1900.72 -63.8809L1807.98 -120.303M1807.98 -120.303L1799.64 -187.587M1807.98 -120.303L1702.96 -158.082M1905.09 -136.584L1799.64 -187.587M1799.64 -187.587L1900.72 -63.8856M1799.64 -187.587L1790.14 -264.268M1799.64 -187.587L1684.94 -218.462M1799.64 -187.587L1664.69 -286.329M1790.14 -264.268L1910.16 -220.867L1779.2 -352.471M1790.14 -264.268L1905.09 -136.58M1790.14 -264.268L1779.2 -352.471M1790.14 -264.268L1664.69 -286.329M1916.1 -319.742L1779.2 -352.466M1779.2 -352.471L1778.41 -358.852M1779.2 -352.471L1697.2 -358.852M1779.2 -352.471L1768.6 -358.852M1872.84 -358.852L1916.1 -319.747M1733.63 -55.3172L1746.79 -11.2318L1635.01 -87.8565M1733.63 -55.3172L1719.1 -104.013M1733.63 -55.3172L1635.01 -87.8565M1733.63 -55.3172L1614.71 -131.429M1719.1 -104.013L1702.96 -158.082M1719.1 -104.013L1614.71 -131.429M1719.1 -104.013L1592.37 -179.384M1702.96 -158.082L1684.94 -218.462M1702.96 -158.082L1592.37 -179.384M1684.94 -218.462L1807.99 -120.303M1684.94 -218.462L1664.69 -286.329M1684.94 -218.462L1567.66 -232.422M1684.94 -218.462L1540.19 -291.397M1664.69 -286.329L1643.04 -358.852M1664.69 -286.329L1540.19 -291.397M1664.69 -286.329L1509.47 -357.358M1648.23 -358.852L1790.14 -264.272M1635.01 -87.8565L1653.53 -48.0945M1635.01 -87.8565L1614.71 -131.429M1635.01 -87.8565L1531.33 -106.616M1635.01 -87.8565L1507.34 -144.88L1614.71 -131.429M1614.71 -131.429L1592.37 -179.384M1567.66 -232.422L1702.97 -158.082M1567.66 -232.422L1592.38 -179.384M1540.19 -291.397L1567.66 -232.427M1540.19 -291.397L1509.47 -357.358M1543.51 -358.852L1509.47 -357.358M1509.47 -357.358L1508.77 -358.852M1531.33 -106.616L1653.53 -48.0899M1531.33 -106.616L1553.36 -71.4874" stroke="#7A7A7A" stroke-width="0.65" stroke-miterlimit="10"/>
<path d="M1592.37 -179.384L1481.1 -186.709M1481.11 -186.709L1614.71 -131.429M1481.11 -186.709L1507.34 -144.875M1481.11 -186.709L1372.48 -182.473L1237.27 -202.528M1567.66 -232.422L1452.3 -232.635M1452.3 -232.635L1420.53 -283.291M1452.3 -232.635L1307.84 -265.132M1452.3 -232.639L1592.37 -179.389M1452.3 -232.639L1481.11 -186.714M1452.3 -232.639L1341.65 -221.902M1420.53 -283.291L1567.66 -232.422M1420.53 -283.291L1307.83 -265.132M1385.32 -339.445L1509.47 -357.358L1504 -358.852M1385.32 -339.445L1540.19 -291.397L1420.53 -283.296L1270.59 -312.76M1385.32 -339.445L1420.54 -283.296M1385.32 -339.445L1270.6 -312.76L1124.23 -324.227M1373.15 -358.852L1385.31 -339.445L1269.05 -358.852M1426.65 -113.205L1531.33 -106.616L1507.34 -144.88L1400.7 -146.383M1426.65 -113.205L1553.36 -71.4875M1426.65 -113.205L1450.57 -82.6129M1426.65 -113.205L1400.71 -146.378M1426.65 -113.205L1323.85 -109.321L1198.82 -121.057M1426.65 -113.205L1297.34 -137.87M1400.71 -146.378L1531.33 -106.612M1400.71 -146.378L1297.34 -137.865M1372.48 -182.478L1507.34 -144.88M1372.48 -182.478L1400.71 -146.383L1268.58 -168.832M1372.48 -182.478L1341.65 -221.902M1372.48 -182.478L1268.58 -168.832M1341.65 -221.902L1481.1 -186.714M1341.65 -221.902L1237.27 -202.532M1341.65 -221.902L1203.08 -239.344M1307.84 -265.132L1341.65 -221.898M1307.84 -265.132L1203.08 -239.34M1307.84 -265.132L1165.57 -279.726M1270.59 -312.76L1307.83 -265.137M1270.59 -312.76L1234.55 -358.852M1270.59 -312.76L1165.57 -279.73L1124.23 -324.227M1323.85 -109.326L1450.57 -82.6175M1323.85 -109.326L1348.37 -82.9227L1224.89 -96.5728M1323.85 -109.326L1224.89 -96.5728M1297.34 -137.87L1323.86 -109.326M1297.34 -137.87L1268.58 -168.832M1297.34 -137.87L1198.82 -121.057L1079.11 -120.123M1297.34 -137.87L1170.59 -147.567M1268.58 -168.832L1170.59 -147.571M1268.58 -168.832L1139.94 -176.36M1237.27 -202.528L1268.58 -168.828M1237.27 -202.528L1203.08 -239.344M1237.27 -202.528L1139.94 -176.36M1237.27 -202.528L1106.52 -207.744M1203.08 -239.344L1165.57 -279.726M1203.08 -239.344L1106.52 -207.744M1203.08 -239.344L1069.96 -242.086M1165.57 -279.726L1069.96 -242.086M1165.57 -279.726L1029.79 -279.823M1212.49 -358.852L1124.23 -324.227M1124.23 -324.227L1092.07 -358.852M1124.23 -324.227L1029.79 -279.827M1124.23 -324.227L985.427 -321.49M1224.89 -96.5728L1249.04 -73.8827M1224.89 -96.5728L1130.97 -76.3519M1224.89 -96.5728L1106.06 -97.382M1198.82 -121.057L1224.89 -96.5682M1198.82 -121.057L1170.59 -147.567M1198.82 -121.057L1106.06 -97.3774L1079.11 -120.123M1170.59 -147.567L1139.94 -176.36M1170.59 -147.567L1079.11 -120.123M1139.94 -176.36L1106.52 -207.744M1139.94 -176.36L1049.87 -144.801M1139.94 -176.36L1018.04 -171.672M1106.52 -207.744L1069.96 -242.086M1106.52 -207.744L1018.04 -171.672M1106.52 -207.744L983.242 -201.039M1069.96 -242.086L1029.79 -279.823M1069.96 -242.086L983.242 -201.043M1069.96 -242.086L945.06 -233.273M1029.79 -279.823L985.427 -321.49M1029.79 -279.823L945.066 -233.268M1052.25 -358.852L985.421 -321.49M985.427 -321.49L945.648 -358.852M985.427 -321.49L902.969 -268.804M985.427 -321.49L856.322 -308.177M1130.97 -76.3519L1249.05 -73.8827M1130.97 -76.3519L1154.07 -56.8524M1130.97 -76.3519L1106.06 -97.382M1130.97 -76.3519L1042.78 -49.8378L939.284 -33.7693M1130.97 -76.3519L1019.5 -67.9871M1106.06 -97.382L1019.5 -67.9871M1106.06 -97.382L994.318 -87.6161M1079.11 -120.123L1049.87 -144.801M1079.11 -120.123L994.318 -87.6161M1049.87 -144.801L1170.6 -147.567M1049.87 -144.801L1018.04 -171.672M1049.87 -144.801L967.009 -108.905M1018.04 -171.672L983.242 -201.039M1018.04 -171.672L937.273 -132.085M1018.04 -171.672L904.782 -157.416M983.242 -201.043L945.06 -233.273M983.242 -201.043L869.139 -185.206M983.242 -201.039L904.782 -157.416M945.06 -233.273L902.963 -268.804M945.06 -233.273L869.139 -185.206M945.06 -233.273L829.853 -215.831M902.963 -268.804L1029.78 -279.823M902.963 -268.804L829.853 -215.831M902.963 -268.804L786.339 -249.753M924.294 -358.852L856.322 -308.177M856.322 -308.177L902.969 -268.808M856.322 -308.177L786.345 -249.757M861.587 -358.852L804.35 -352.041L856.316 -308.173L737.873 -287.536L786.339 -249.753M1042.78 -49.8332L1154.07 -56.8478M1042.78 -49.8332L1064.37 -32.9971M1042.78 -49.8332L1019.5 -67.9871M1042.78 -49.8332L960.645 -17.9552M1019.5 -67.9871L994.318 -87.6161M1019.5 -67.9871L939.284 -33.7693M994.318 -87.6161L916.183 -50.8736M994.318 -87.6161L891.106 -69.439M967.003 -108.91L1079.11 -120.128M967.003 -108.91L994.312 -87.6161M967.003 -108.91L891.106 -69.439M937.273 -132.09L1049.87 -144.806M937.273 -132.09L967.009 -108.91M937.273 -132.09L863.802 -89.6553M937.273 -132.09L833.959 -111.749M904.782 -157.416L937.267 -132.09M904.782 -157.416L869.139 -185.206M904.782 -157.416L833.953 -111.749M904.782 -157.416L801.198 -136.002M869.139 -185.206L829.853 -215.831M869.139 -185.206L801.198 -136.006M829.853 -215.831L765.075 -162.747M829.853 -215.831L725.043 -192.387M786.339 -249.753L829.853 -215.826M786.339 -249.753L725.043 -192.383M786.339 -249.753L680.431 -225.417L725.043 -192.387M960.645 -17.9552L1064.37 -33.0017M960.645 -17.9552L980.45 -3.29237M960.645 -17.9552L939.284 -33.7693M960.645 -17.9552L884.665 18.5793L865.393 4.6147M960.645 -17.9552L865.393 4.6147M939.284 -33.7693L865.393 4.6147M939.284 -33.7693L844.537 -10.5012L865.393 4.6147M916.177 -50.8736L1019.49 -67.9871M916.177 -50.8736L939.278 -33.7693M916.177 -50.8736L844.531 -10.5012L821.886 -26.9165M916.177 -50.8736L821.886 -26.9165M891.106 -69.439L916.177 -50.8782M891.106 -69.439L821.886 -26.9165M891.106 -69.439L797.206 -44.8069L821.886 -26.9165M863.802 -89.6506L967.003 -108.905M863.802 -89.6506L891.106 -69.4344M863.802 -89.6506L833.959 -111.749M863.802 -89.6506L797.206 -44.8022M833.959 -111.749L801.198 -136.002M833.959 -111.749L770.208 -64.3757M833.959 -111.749L740.544 -85.8728L770.208 -64.3757M801.198 -136.002L765.075 -162.747M801.198 -136.002L740.538 -85.8728L707.801 -109.603M801.198 -136.002L707.801 -109.603M765.075 -162.747L869.139 -185.201M765.075 -162.747L725.043 -192.387M765.075 -162.747L707.801 -109.603M765.075 -162.747L671.48 -135.928L707.801 -109.603M725.043 -192.387L671.48 -135.932L630.957 -165.304L725.043 -192.387ZM884.659 18.5793L980.444 -3.29237M884.659 18.5793L902.513 31.5219L814.802 59.2614L884.659 18.5793ZM770.208 -64.3757L863.808 -89.6506M770.208 -64.3757L797.211 -44.8069" stroke="#7A7A7A" stroke-width="0.65" stroke-miterlimit="10"/>
<path d="M814.802 59.2616L830.639 70.891L750.996 103.759M814.802 59.2616L797.704 46.7027M814.802 59.2616L750.996 103.759M814.802 59.2616L736.09 92.2031M797.704 46.7027L884.658 18.5794M797.704 46.7027L779.183 33.0988M797.704 46.7027L736.09 92.2031M779.183 33.0988L844.537 -10.5011L759.053 18.3112M779.183 33.0988L865.393 4.61484L797.71 46.7027L719.934 79.6766M779.183 33.0988L759.053 18.3112M779.183 33.0988L719.934 79.6766M779.183 33.0988L702.356 66.0542M821.886 -26.9164L759.053 18.3112M759.053 18.3112L737.098 2.1826M759.053 18.3112L702.356 66.0542M759.053 18.3112L683.169 51.1788M737.092 2.1826L797.205 -44.8067L713.054 -15.4766M737.098 2.1826L821.892 -26.9164M737.098 2.1826L713.054 -15.4766M737.098 2.1826L683.169 51.1788M737.098 2.1826L662.139 34.8745M770.208 -64.3756L713.054 -15.4766M713.054 -15.4766L662.139 34.8745M713.054 -15.4766L638.983 16.924M686.615 -34.8975L740.544 -85.8727L657.39 -56.3622M686.609 -34.9021L770.202 -64.3756M686.609 -34.9021L713.054 -15.4812M686.609 -34.9021L638.977 16.9194M686.609 -34.9021L613.36 -2.93617M707.801 -109.603L657.39 -56.3622M657.39 -56.3622L686.609 -34.8975M657.39 -56.3622L613.36 -2.93617M657.39 -56.3622L584.868 -25.0251M624.929 -80.2036L671.48 -135.928L588.662 -106.847L624.929 -80.2083M624.929 -80.2083L707.801 -109.608M624.929 -80.2083L657.39 -56.3668M624.929 -80.2083L584.868 -25.0298L523.53 6.27025M624.929 -80.2083L552.977 -49.7452L584.862 -25.0251M750.996 103.759L764.792 114.454M750.996 103.759L736.09 92.2031M750.996 103.759L693.171 151.895M750.996 103.759L680.443 140.973M736.09 92.2031L680.443 140.973M719.934 79.6766L736.096 92.2031L666.647 129.126M719.934 79.6766L666.647 129.126M719.934 79.6766L651.626 116.234M702.356 66.0542L719.934 79.6813M702.356 66.0542L683.169 51.1788M702.356 66.0542L651.626 116.234M702.356 66.0542L635.213 102.145M683.169 51.1788L662.139 34.8745M683.169 51.1788L635.213 102.145M683.169 51.1788L617.208 86.6913L635.213 102.145M662.139 34.8745L638.983 16.924M662.139 34.8745L617.214 86.6913M662.139 34.8745L597.373 69.661L638.983 16.924M613.36 -2.93617L638.977 16.924L575.4 50.7996L613.36 -2.93617ZM613.36 -2.93617L550.936 29.8019M584.868 -25.0251L613.366 -2.93617M584.868 -25.0251L550.942 29.8019M693.171 151.895L764.792 114.449M693.171 151.895L704.938 161.998M693.171 151.895L641.3 203.642M680.443 140.973L693.165 151.895M680.443 140.973L630.728 192.998M680.443 140.973L619.262 181.451M666.647 129.126L680.449 140.973M666.647 129.126L619.268 181.451M666.647 129.126L606.78 168.879L651.626 116.234M651.626 116.234L666.647 129.131M651.626 116.234L635.213 102.145M651.626 116.234L593.134 155.136L635.213 102.145M635.213 102.145L578.156 140.053M641.294 203.642L704.932 161.998M630.728 193.002L693.165 151.899M1890.6 104.512L1827.82 39.7436M1827.82 39.7389L1746.79 -11.2317M1746.79 -11.2271L1653.53 -48.0898L1553.36 -71.4827M1553.36 -71.4873L1450.57 -82.6174M1450.57 -82.6128L1348.37 -82.9226M1768.91 530.759L1656.62 599.935M1768.55 529.52L1856.56 447.735L1857 447.319L1888.37 418.169M471.924 304.363L472.056 306.129L472.254 308.792L475.52 329.42L476.18 331.57L477.105 334.594L480.875 346.885L481.361 348.48M467.169 276.66L471.822 306.073M1799.22 512.088L1770.08 530.038L1768.91 530.759M471.828 306.069L472.26 308.788M491.531 381.639L491.255 380.733L490.192 377.265L486.512 365.27M486.518 365.275L485.654 362.463L481.367 348.48M504.673 409.282L506.774 413.698L509.091 418.571L511.271 423.154L513.258 427.329M513.252 427.329L515.983 433.068M491.537 381.639L495.085 389.098M504.673 409.286L501.947 403.548L500.002 399.456L496.76 392.635L495.079 389.098" stroke="#7A7A7A" stroke-width="0.65" stroke-miterlimit="10"/>
<path d="M3 13H1443V799H3V13Z" fill="url(#paint0_diamond_1981_8326)" fill-opacity="0.5"/>
</g>
<defs>  
<clipPath id="clip0_1981_8326">
<rect width="2750" height="1130" fill="white" transform="translate(-632 -359)"/>
</clipPath>
</defs>
</svg>
